0
SECTION
2
HEADER
9
$INSUNITS
70
4
9
$ACADVER
1
AC1014
9
$HANDSEED
5
FFFF
0
ENDSEC
0
SECTION
2
TABLES
0
TABLE
2
VPORT
5
8
100
AcDbSymbolTable
0
ENDTAB
0
TABLE
2
LTYPE
5
5
100
AcDbSymbolTable
0
LTYPE
5
14
100
AcDbSymbolTableRecord
100
AcDbLinetypeTableRecord
2
BYBLOCK
70
0
0
LTYPE
5
15
100
AcDbSymbolTableRecord
100
AcDbLinetypeTableRecord
2
BYLAYER
70
0
0
ENDTAB
0
TABLE
2
LAYER
5
2
100
AcDbSymbolTable
70
2
0
LAYER
5
50
100
AcDbSymbolTableRecord
100
AcDbLayerTableRecord
2
0
70
0
6
CONTINUOUS
0
ENDTAB
0
TABLE
2
STYLE
5
3
100
AcDbSymbolTable
70
1
0
STYLE
5
11
100
AcDbSymbolTableRecord
100
AcDbTextStyleTableRecord
2
STANDARD
70
0
0
ENDTAB
0
TABLE
2
VIEW
5
6
100
AcDbSymbolTable
70
0
0
ENDTAB
0
TABLE
2
UCS
5
7
100
AcDbSymbolTable
70
0
0
ENDTAB
0
TABLE
2
APPID
5
9
100
AcDbSymbolTable
70
2
0
APPID
5
12
100
AcDbSymbolTableRecord
100
AcDbRegAppTableRecord
2
ACAD
70
0
0
ENDTAB
0
TABLE
2
DIMSTYLE
5
A
100
AcDbSymbolTable
70
1
0
ENDTAB
0
TABLE
2
BLOCK_RECORD
5
1
100
AcDbSymbolTable
70
1
0
BLOCK_RECORD
5
1F
100
AcDbSymbolTableRecord
100
AcDbBlockTableRecord
2
*MODEL_SPACE
0
BLOCK_RECORD
5
1B
100
AcDbSymbolTableRecord
100
AcDbBlockTableRecord
2
*PAPER_SPACE
0
ENDTAB
0
ENDSEC
0
SECTION
2
BLOCKS
0
BLOCK
5
20
100
AcDbEntity
100
AcDbBlockBegin
2
*MODEL_SPACE
0
ENDBLK
5
21
100
AcDbEntity
100
AcDbBlockEnd
0
BLOCK
5
1C
100
AcDbEntity
100
AcDbBlockBegin
2
*PAPER_SPACE
0
ENDBLK
5
1D
100
AcDbEntity
100
AcDbBlockEnd
0
ENDSEC
0
SECTION
2
ENTITIES
0
LINE
5
100
100
AcDbEntity
8
0
100
AcDbLine
10
0
20
0
30
0
11
14.000000000000004
21
0
31
0
0
LINE
5
101
100
AcDbEntity
8
0
100
AcDbLine
10
14.000000000000004
20
48.250000000000014
30
0
11
8
21
48.250000000000014
31
0
0
LINE
5
102
100
AcDbEntity
8
0
100
AcDbLine
10
14.000000000000004
20
12.6
30
0
11
26.100000000000009
21
12.6
31
0
0
LINE
5
103
100
AcDbEntity
8
0
100
AcDbLine
10
30.100000000000009
20
12.6
30
0
11
30.100000000000009
21
15.100000000000001
31
0
0
LINE
5
104
100
AcDbEntity
8
0
100
AcDbLine
10
30.100000000000009
20
19.100000000000001
30
0
11
14.000000000000004
21
19.100000000000001
31
0
0
LINE
5
105
100
AcDbEntity
8
0
100
AcDbLine
10
14.000000000000004
20
0
30
0
11
14.000000000000004
21
12.6
31
0
0
LINE
5
106
100
AcDbEntity
8
0
100
AcDbLine
10
30.100000000000009
20
12.6
30
0
11
30.100000000000009
21
-5.1500000000000012
31
0
0
LINE
5
107
100
AcDbEntity
8
0
100
AcDbLine
10
30.100000000000009
20
-5.1500000000000012
30
0
11
26.100000000000009
21
-5.1500000000000021
31
0
0
LINE
5
108
100
AcDbEntity
8
0
100
AcDbLine
10
26.100000000000009
20
-5.1500000000000021
30
0
11
26.100000000000009
21
12.6
31
0
0
LINE
5
109
100
AcDbEntity
8
0
100
AcDbLine
10
30.100000000000009
20
19.100000000000001
30
0
11
64.100000000000009
21
19.100000000000001
31
0
0
LINE
5
110
100
AcDbEntity
8
0
100
AcDbLine
10
64.100000000000009
20
19.100000000000001
30
0
11
64.100000000000009
21
15.100000000000001
31
0
0
LINE
5
111
100
AcDbEntity
8
0
100
AcDbLine
10
60.100000000000009
20
15.100000000000001
30
0
11
30.100000000000009
21
15.100000000000001
31
0
0
LINE
5
112
100
AcDbEntity
8
0
100
AcDbLine
10
60.100000000000009
20
15.100000000000001
30
0
11
60.100000000000009
21
6.6000000000000014
31
0
0
LINE
5
113
100
AcDbEntity
8
0
100
AcDbLine
10
60.100000000000009
20
6.6000000000000014
30
0
11
64.100000000000009
21
6.6000000000000014
31
0
0
LINE
5
114
100
AcDbEntity
8
0
100
AcDbLine
10
64.100000000000009
20
6.6000000000000014
30
0
11
64.100000000000009
21
15.100000000000001
31
0
0
LINE
5
115
100
AcDbEntity
8
0
100
AcDbLine
10
14.000000000000004
20
44.700000000000003
30
0
11
35.649999999999999
21
44.700000000000003
31
0
0
LINE
5
116
100
AcDbEntity
8
0
100
AcDbLine
10
35.649999999999999
20
44.700000000000003
30
0
11
35.649999999999999
21
39.20000000000001
31
0
0
LINE
5
117
100
AcDbEntity
8
0
100
AcDbLine
10
29.149999999999999
20
39.20000000000001
30
0
11
14.000000000000004
21
39.20000000000001
31
0
0
LINE
5
118
100
AcDbEntity
8
0
100
AcDbLine
10
14.000000000000004
20
19.100000000000001
30
0
11
14.000000000000004
21
39.20000000000001
31
0
0
LINE
5
119
100
AcDbEntity
8
0
100
AcDbLine
10
14.000000000000004
20
44.700000000000003
30
0
11
14.000000000000004
21
48.250000000000014
31
0
0
LINE
5
120
100
AcDbEntity
8
0
100
AcDbLine
10
29.149999999999999
20
39.20000000000001
30
0
11
29.149999999999999
21
32.200000000000003
31
0
0
LINE
5
121
100
AcDbEntity
8
0
100
AcDbLine
10
29.149999999999999
20
32.200000000000003
30
0
11
35.649999999999999
21
32.200000000000003
31
0
0
LINE
5
122
100
AcDbEntity
8
0
100
AcDbLine
10
35.649999999999999
20
32.200000000000003
30
0
11
35.649999999999999
21
39.20000000000001
31
0
0
LINE
5
123
100
AcDbEntity
8
0
100
AcDbLine
10
8
20
48.250000000000014
30
0
11
8
21
64.25
31
0
0
LINE
5
124
100
AcDbEntity
8
0
100
AcDbLine
10
8
20
64.25
30
0
11
0
21
64.25
31
0
0
LINE
5
125
100
AcDbEntity
8
0
100
AcDbLine
10
0
20
58.250000000000014
30
0
11
0
21
48.250000000000014
31
0
0
LINE
5
126
100
AcDbEntity
8
0
100
AcDbLine
10
0
20
64.25
30
0
11
-25.399999999999999
21
64.25
31
0
0
LINE
5
127
100
AcDbEntity
8
0
100
AcDbLine
10
-25.399999999999999
20
64.25
30
0
11
-25.399999999999999
21
58.250000000000014
31
0
0
LINE
5
128
100
AcDbEntity
8
0
100
AcDbLine
10
-25.399999999999999
20
58.250000000000014
30
0
11
0
21
58.250000000000014
31
0
0
LINE
5
129
100
AcDbEntity
8
0
100
AcDbLine
10
0
20
38.250000000000014
30
0
11
-18.5
21
38.250000000000007
31
0
0
LINE
5
130
100
AcDbEntity
8
0
100
AcDbLine
10
-18.5
20
38.250000000000007
30
0
11
-18.5
21
34.250000000000007
31
0
0
LINE
5
131
100
AcDbEntity
8
0
100
AcDbLine
10
-14.500000000000002
20
34.250000000000007
30
0
11
0
21
34.250000000000007
31
0
0
LINE
5
132
100
AcDbEntity
8
0
100
AcDbLine
10
0
20
48.250000000000014
30
0
11
0
21
38.250000000000014
31
0
0
LINE
5
133
100
AcDbEntity
8
0
100
AcDbLine
10
-14.500000000000002
20
34.250000000000007
30
0
11
-14.500000000000002
21
28.250000000000007
31
0
0
LINE
5
134
100
AcDbEntity
8
0
100
AcDbLine
10
-14.500000000000002
20
28.250000000000007
30
0
11
-18.5
21
28.250000000000007
31
0
0
LINE
5
135
100
AcDbEntity
8
0
100
AcDbLine
10
-18.5
20
28.250000000000007
30
0
11
-18.5
21
34.250000000000007
31
0
0
LINE
5
136
100
AcDbEntity
8
0
100
AcDbLine
10
-3.0006027692572182e-16
20
7.5999999999999996
30
0
11
-37.950000000000003
21
7.5999999999999996
31
0
0
LINE
5
137
100
AcDbEntity
8
0
100
AcDbLine
10
-37.950000000000003
20
7.5999999999999996
30
0
11
-37.950000000000003
21
14.100000000000001
31
0
0
LINE
5
138
100
AcDbEntity
8
0
100
AcDbLine
10
-31.950000000000003
20
14.100000000000001
30
0
11
-3.0006027692572182e-16
21
14.1
31
0
0
LINE
5
139
100
AcDbEntity
8
0
100
AcDbLine
10
0
20
34.250000000000007
30
0
11
-3.0006027692572182e-16
21
14.1
31
0
0
LINE
5
140
100
AcDbEntity
8
0
100
AcDbLine
10
-3.0006027692572182e-16
20
7.5999999999999996
30
0
11
0
21
0
31
0
0
LINE
5
141
100
AcDbEntity
8
0
100
AcDbLine
10
-31.950000000000003
20
14.100000000000001
30
0
11
-31.950000000000003
21
18.350000000000001
31
0
0
LINE
5
142
100
AcDbEntity
8
0
100
AcDbLine
10
-31.950000000000003
20
18.350000000000001
30
0
11
-37.950000000000003
21
18.350000000000001
31
0
0
LINE
5
143
100
AcDbEntity
8
0
100
AcDbLine
10
-37.950000000000003
20
18.350000000000001
30
0
11
-37.950000000000003
21
14.100000000000001
31
0
0
ENDSEC
0
SECTION
2
OBJECTS
0
DICTIONARY
5
C
100
AcDbDictionary
3
ACAD_GROUP
350
D
3
ACAD_MLINESTYLE
350
17
0
DICTIONARY
5
D
100
AcDbDictionary
0
DICTIONARY
5
1A
330
C
100
AcDbDictionary
0
DICTIONARY
5
17
100
AcDbDictionary
0
ENDSEC
0
EOF
