<?xml version="1.0" standalone="no"?>
 <!DOCTYPE svg PUBLIC "-//W3C//DTD SVG 1.1//EN" 
 "http://www.w3.org/Graphics/SVG/1.1/DTD/svg11.dtd"> 
<svg xmlns="http://www.w3.org/2000/svg" version="1.1" 
    width="11.7983cm" height="7.8867cm" viewBox="0 0 46450 31050 ">
<title>SVG Picture created as FFC24-brd.svg date 2019/12/05 17:25:22 </title>
  <desc>Picture generated by PCBNEW </desc>
<g style="fill:#000000; fill-opacity:1;stroke:#000000; stroke-opacity:1;
stroke-linecap:round; stroke-linejoin:round; "
 transform="translate(0 0) scale(1 1)">
</g>
<g style="fill:#000000; fill-opacity:0.0; 
stroke:#000000; stroke-width:-0.000393701; stroke-opacity:1; 
stroke-linecap:round; stroke-linejoin:round;">
</g>
<g style="fill:#000000; fill-opacity:0.0; 
stroke:#000000; stroke-width:78.7402; stroke-opacity:1; 
stroke-linecap:round; stroke-linejoin:round;">
<path d="M28290 30238
L28290 24038
" />
<path d="M22778.4 3703.56 A787.402 787.402 0.0 0 0 21991 2916.16 " />
<path d="M17857.1 5868.92 A787.402 787.402 0.0 0 0 17069.7 5081.51 " />
<path d="M31302 11203.6 A787.402 787.402 0.0 0 0 30514.6 10416.2 " />
<path d="M29136.6 13565.8 A787.402 787.402 0.0 0 0 28349.2 12778.4 " />
<path d="M17069.7 12152.4 A787.402 787.402 0.0 0 0 17857.1 11365 " />
<path d="M10573.6 12152.4 A787.402 787.402 0.0 0 0 9786.24 12939.8 " />
<path d="M12739 14827.2 A787.402 787.402 0.0 0 0 11951.6 15614.6 " />
<path d="M43250.8 20947.7 A787.402 787.402 0.0 0 0 42463.4 20160.3 " />
<path d="M41085.5 23154 A787.402 787.402 0.0 0 0 40298 22366.6 " />
<path d="M31242.9 22366.6 A787.402 787.402 0.0 0 0 30455.5 23154 " />
<path d="M28290.2 24038.2 A787.402 787.402 0.0 0 0 27502.8 23250.8 " />
<path d="M17857.1 15614.6 A787.402 787.402 0.0 0 0 17069.7 14827.2 " />
<path d="M17069.7 22660.3 A787.402 787.402 0.0 0 0 17857.1 21872.9 " />
<path d="M23565.8 23250.8 A787.402 787.402 0.0 0 0 22778.4 24038.2 " />
<path d="M17857.1 26006.7 A787.402 787.402 0.0 0 0 17069.7 25219.3 " />
<path d="M23565.8 12778.4 A787.402 787.402 0.0 0 0 22778.4 13565.8 " />
<path d="M22778.4 19372.9 A787.402 787.402 0.0 0 0 23565.8 20160.3 " />
<path d="M22778.4 9628.76 A787.402 787.402 0.0 0 0 23565.8 10416.2 " />
<path d="M5081.51 21872.9 A787.402 787.402 0.0 0 0 5868.92 22660.3 " />
<path d="M2916.16 24431.9 A787.402 787.402 0.0 0 0 3703.56 25219.3 " />
<path d="M17857 2916
L21006 2916
" />
<path d="M7857 2916
L17857 2916
" />
<path d="M7857 5081
L7857 2916
" />
<path d="M9786 14727
L9786 12939
" />
<path d="M9786 17089
L9786 14727
" />
<path d="M17857 9215
L17857 5868
" />
<path d="M11951 17089
L9786 17089
" />
<path d="M31301 15534
L29136 15534
" />
<path d="M17857 21872
L17857 15614
" />
<path d="M17857 11364
L17857 9215
" />
<path d="M31301 12778
L31301 15534
" />
<path d="M10573 12152
L17069 12152
" />
<path d="M22778 9215
L22778 9628
" />
<path d="M22778 3703
L22778 9215
" />
<path d="M17069 14827
L12738 14827
" />
<path d="M21006 2916
L21990 2916
" />
<path d="M5868 22660
L17069 22660
" />
<path d="M5081 20987
L5081 21872
" />
<path d="M11951 15614
L11951 17089
" />
<path d="M2916 20987
L5081 20987
" />
<path d="M31301 11203
L31301 12778
" />
<path d="M17069 5081
L7857 5081
" />
<path d="M23565 10416
L30514 10416
" />
<path d="M28349 12778
L23565 12778
" />
<path d="M23565 20160
L29116 20160
" />
<path d="M41085 25613
L41085 23153
" />
<path d="M43250 25613
L41085 25613
" />
<path d="M43250 20947
L43250 22266
" />
<path d="M29116 20160
L42463 20160
" />
<path d="M22778 13565
L22778 19372
" />
<path d="M43250 22266
L43250 25613
" />
<path d="M40298 22366
L31242 22366
" />
<path d="M29136 15534
L29136 13565
" />
<path d="M2916 22660
L2916 20987
" />
<path d="M2916 24431
L2916 22660
" />
<path d="M17069 25219
L3703 25219
" />
<path d="M17857 28211
L17857 26006
" />
<path d="M22778 28211
L17857 28211
" />
<path d="M22778 24038
L22778 28211
" />
<path d="M30455 23153
L30455 30238
" />
<path d="M27502 23250
L23565 23250
" />
<path d="M30455 30238
L28290 30238
" />
<g >
</g>
<g >
</g>
<g >
</g>
<g >
</g>
<g >
</g>
<g >
</g>
<g >
</g>
<g >
</g>
</g> 
</svg>
